<svg width="60" height="60" viewBox="0 0 60 60" fill="none" xmlns="http://www.w3.org/2000/svg">
<g id="online-education-computer-covid-online-education-svgrepo-com 1">
<path id="Vector" d="M59.5312 45.8203V2.22656H0.46875V45.8203H26.4844V52.6172H17.5781V57.7734H42.4219V52.6172H33.5156V45.8203H59.5312ZM4.45312 6.21094H55.3125V41.6016H4.45312V6.21094ZM30.0115 25.9837L29.5247 25.7984L21.6541 22.8541V30.064C21.6541 31.6172 25.3866 32.8807 30 32.8807C34.6134 32.8807 38.3459 31.6172 38.3459 30.064V22.8541L30.4985 25.7984L30.0115 25.9837ZM18.8606 20.3156V29.2758C19.417 29.5308 19.7995 30.0987 19.7995 30.7594V34.7004H16.5539V30.7594C16.5539 30.1102 16.9364 29.5423 17.4813 29.2873V19.8056L15.1631 18.9363L30.0117 13.3725L44.8371 18.9363L30.0117 24.5002L18.8606 20.3156Z" fill="white"/>
</g>
</svg>
